# xmcd CD database file generated by Grip 3.2.0
# 
# Track frame offsets:
#       150
#       30327
#       53500
#       76995
#       97340
#       133620
#       161982
#       172040
# 
# Disc length: 2716 seconds
# 
# Revision: 14
# Processed by: cddbd v1.5.2PL0 Copyright (c) Steve Scherf et al.
# Submitted via: Grip 3.2.0
# 
DISCID=630a9a08
DTITLE=Jon And Vangelis - Short Stories
DYEAR=1979
DGENRE=Electronic
TTITLE0=Curious Electric
TTITLE1=Each And Everyday - Bird Song
TTITLE2=I Hear You Now
TTITLE3=The Road
TTITLE4=Far Away In Baagad
TTITLE5=Love Is - One More Time
TTITLE6=Thunder
TTITLE7=A Play Within A Play
EXTD=Polydor 1979/80  800 027-2\n\nBe careful 8 tracks are displayed but th
EXTD=ere are 10 titles !\ntitle 2 and 3 are combined into track 2 and\ntitle 
EXTD=7 and 8 into track 7 ! YEAR: 1979
EXTT0=
EXTT1=
EXTT2=
EXTT3=
EXTT4=
EXTT5=
EXTT6=
EXTT7=
PLAYORDER=
